<svg xmlns="http://www.w3.org/2000/svg" width="14.997" height="13.531" viewBox="0 0 14.997 13.531"><defs><style>.a{fill:#818181;}.b{fill:#fefefe;}</style></defs><g transform="translate(-250.83 -207.936)"><g transform="translate(250.83 207.936)"><path class="a" d="M265.805,356.89c-.059.172-.211.24-.359.311-.029.014-.048-.011-.065-.038a2.091,2.091,0,0,0-.345-.444,2.469,2.469,0,0,0-.779-.521,2.373,2.373,0,0,0-1.072-.183,1.677,1.677,0,0,0-.354.045,2.337,2.337,0,0,0-1.486,1.057v0a2.366,2.366,0,0,0-.324.819,2.287,2.287,0,0,0,.035,1.011h-3.422a2.145,2.145,0,0,0,.062-.453.692.692,0,0,0,0-.238,2.346,2.346,0,0,0-.751-1.616,2.3,2.3,0,0,0-1.2-.593,2.711,2.711,0,0,0-.6-.034,2.272,2.272,0,0,0-1.484.621,3.145,3.145,0,0,0-.712,1.127.462.462,0,0,1-.492.329.335.335,0,0,1-.3-.222,1.645,1.645,0,0,1-.053-.721,2.238,2.238,0,0,1,.126-.575,2.288,2.288,0,0,1,.416-.666,3.771,3.771,0,0,1,.407-.379h-.292c-.26,0-.519,0-.778,0a.469.469,0,0,1-.485-.487c0-.051-.013-.064-.067-.073a.734.734,0,0,1-.593-.7c0-1.224,0-2.447,0-3.671a.687.687,0,0,1,.351-.6.709.709,0,0,1,.4-.1h3.826a.729.729,0,0,1,.726.66c.031.39.011.78.014,1.17,0,.625,0,1.25,0,1.874,0,.062.006.087.078.085.2-.006.4,0,.606,0,.009-.072-.059-.1-.089-.144a.855.855,0,0,1-.087-.656c.05-.283.09-.567.134-.851.052-.339.114-.675.17-1.013.059-.36.115-.721.173-1.081a.724.724,0,0,1,.756-.585.838.838,0,0,1,.617.365c.18.225.373.439.559.66q.239.283.474.57a.254.254,0,0,0,.117.077c.472.165.946.321,1.415.493a2.876,2.876,0,0,1,.662.268.6.6,0,0,1,.237.3.133.133,0,0,0,.143.1,1.318,1.318,0,0,1,.522.142.9.9,0,0,1,.378.5,10.294,10.294,0,0,1,.386,1.26,4.264,4.264,0,0,0,.217.673,1.261,1.261,0,0,0,.4.442c.346.276.732.5,1.1.75a2.851,2.851,0,0,1,.551.463A.467.467,0,0,1,265.805,356.89Z" transform="translate(-250.83 -346.634)"/><path class="a" d="M392.367,727.16a1.779,1.779,0,0,1,1.495-1.634,1.754,1.754,0,0,1,1.358.331,1.795,1.795,0,0,1,.591,2.09,1.832,1.832,0,0,1-.318.523,1.741,1.741,0,0,1-.6.444,1.9,1.9,0,0,1-.557.151,1.8,1.8,0,0,1-.875-.12,1.823,1.823,0,0,1-.436-.262,1.7,1.7,0,0,1-.527-.7,1.5,1.5,0,0,1-.13-.556A1.315,1.315,0,0,1,392.367,727.16Z" transform="translate(-389.639 -715.553)"/><path class="a" d="M580.408,209.279a1.264,1.264,0,0,1-1.2,1.2.321.321,0,0,1-.135,0,1.263,1.263,0,0,1-1.2-1.432,1.259,1.259,0,0,1,.374-.754,1.243,1.243,0,0,1,.689-.335,1.271,1.271,0,0,1,1.34.687,1.027,1.027,0,0,1,.125.505A.362.362,0,0,1,580.408,209.279Z" transform="translate(-571.58 -207.936)"/><circle class="a" cx="1.79" cy="1.79" r="1.79" transform="translate(10.73 9.95)"/></g><path class="b" d="M634,475.91c.095.109.179.2.256.3a.734.734,0,0,0,.34.237l1.743.614c.126.044.252.087.377.135a.694.694,0,0,0,.405.029c.072-.016.088.017.088.07,0,.135,0,.269,0,.4-.027.517-.074,1.033-.149,1.546a6.876,6.876,0,0,1-.346,1.5,1.049,1.049,0,0,1-.361.538.256.256,0,0,1-.032.021c-.058.027-.128.067-.18.033-.034-.022,0-.1.009-.149.155-.876.312-1.751.463-2.627a1.2,1.2,0,0,0,.025-.512.675.675,0,0,0-.437-.506c-.534-.186-1.072-.359-1.609-.538l-.67-.222c-.024-.008-.059-.007-.052-.052C633.911,476.464,633.954,476.2,634,475.91Z" transform="translate(-375.673 -262.822)"/><path class="b" d="M319.4,501.149h-1.162a.236.236,0,0,1-.2-.075.177.177,0,0,1,.1-.288,2.222,2.222,0,0,1,.456-.014c.65,0,1.3,0,1.949,0,.026,0,.051,0,.077,0,.138.01.206.077.2.2a.194.194,0,0,1-.212.18c-.182,0-.365,0-.548,0Z" transform="translate(-65.883 -287.201)"/><path class="b" d="M660.711,621.906c0-.327,0-.654,0-.98,0-.049.011-.07.061-.084a.92.92,0,0,0,.353-.184.518.518,0,0,0,.186-.293c.006-.028,0-.072.055-.053.034.012.061.018.051.071-.08.433-.156.865-.232,1.3q-.09.513-.176,1.028a.494.494,0,0,0,.014.19c.009.043.006.066-.053.068-.257.007-.257.009-.257-.247Z" transform="translate(-402.001 -404.444)"/><path class="b" d="M343.266,448.735h-1.2c-.14,0-.216-.066-.216-.184s.077-.188.214-.189c.8,0,1.607,0,2.41,0a.2.2,0,0,1,.2.118.183.183,0,0,1-.042.2.185.185,0,0,1-.157.053Z" transform="translate(-89.27 -235.802)"/><path class="b" d="M295.1,553.422h1.2c.116,0,.183.045.206.133a.186.186,0,0,1-.194.24c-.3,0-.595,0-.892,0h-1.536a.188.188,0,0,1-.186-.279.189.189,0,0,1,.192-.1Z" transform="translate(-42.022 -338.842)"/></g></svg>