<svg xmlns="http://www.w3.org/2000/svg" width="14.749" height="13.307" viewBox="0 0 14.749 13.307"><defs><style>.a{fill:#e9e9e9;}.b{fill:#343434;}</style></defs><path class="a" d="M265.557,356.523c-.058.163-.208.228-.353.3-.029.013-.047-.01-.064-.037a2,2,0,0,0-.339-.423,2.435,2.435,0,0,0-.766-.5,2.4,2.4,0,0,0-1.054-.174,1.7,1.7,0,0,0-.348.043,2.288,2.288,0,0,0-1.461,1.006v0a2.211,2.211,0,0,0-.319.779,2.106,2.106,0,0,0,.034.962h-3.365a1.98,1.98,0,0,0,.061-.431.636.636,0,0,0,0-.227,2.081,2.081,0,0,0-.167-.736,2.136,2.136,0,0,0-.572-.8,2.3,2.3,0,0,0-1.178-.564,2.755,2.755,0,0,0-.594-.033,2.273,2.273,0,0,0-1.46.59,2.98,2.98,0,0,0-.7,1.072.454.454,0,0,1-.484.313.329.329,0,0,1-.3-.211,1.516,1.516,0,0,1-.052-.686,2.072,2.072,0,0,1,.124-.547,2.168,2.168,0,0,1,.41-.634,3.662,3.662,0,0,1,.4-.36h-.287c-.255,0-.51,0-.765,0a.454.454,0,0,1-.477-.464c0-.048-.013-.061-.066-.07a.706.706,0,0,1-.583-.663c0-1.164,0-2.328,0-3.492a.65.65,0,0,1,.345-.571.716.716,0,0,1,.4-.1h3.762a.708.708,0,0,1,.714.628c.031.371.011.742.014,1.113,0,.594,0,1.189,0,1.782,0,.059.006.083.077.081.2-.006.4,0,.6,0,.009-.068-.058-.093-.088-.137a.79.79,0,0,1-.085-.624c.049-.269.089-.539.131-.81.051-.322.112-.642.167-.964.058-.342.113-.686.17-1.028a.707.707,0,0,1,.744-.556.829.829,0,0,1,.606.347c.177.214.367.418.55.628q.235.269.467.542a.251.251,0,0,0,.115.073c.464.157.931.305,1.392.469a2.886,2.886,0,0,1,.651.255.571.571,0,0,1,.233.284c.027.077.07.091.141.1a1.333,1.333,0,0,1,.514.135.861.861,0,0,1,.372.477,9.557,9.557,0,0,1,.38,1.2,3.958,3.958,0,0,0,.214.64,1.214,1.214,0,0,0,.389.421c.34.263.72.473,1.078.713a2.781,2.781,0,0,1,.541.44A.435.435,0,0,1,265.557,356.523Z" transform="translate(-250.83 -346.331)"/><path class="a" d="M392.366,727.08a1.693,1.693,0,0,1,1.422-1.554,1.668,1.668,0,0,1,1.291.315,1.707,1.707,0,0,1,.562,1.988,1.743,1.743,0,0,1-.3.5,1.654,1.654,0,0,1-.571.422,1.815,1.815,0,0,1-.53.144,1.647,1.647,0,0,1-1.247-.363,1.612,1.612,0,0,1-.5-.666,1.425,1.425,0,0,1-.124-.529A1.254,1.254,0,0,1,392.366,727.08Z" transform="translate(-389.657 -715.603)"/><path class="a" d="M580.284,209.213a1.2,1.2,0,0,1-1.138,1.137.3.3,0,0,1-.128,0,1.2,1.2,0,0,1-1.139-1.362,1.2,1.2,0,0,1,.356-.717,1.182,1.182,0,0,1,.655-.319,1.209,1.209,0,0,1,1.274.653.976.976,0,0,1,.119.481A.343.343,0,0,1,580.284,209.213Z" transform="translate(-571.643 -207.936)"/><circle class="a" cx="1.703" cy="1.703" r="1.703" transform="translate(10.69 9.901)"/><path class="b" d="M633.994,475.91c.09.1.17.19.243.283a.7.7,0,0,0,.324.225l1.658.584c.12.042.24.082.359.128a.659.659,0,0,0,.385.027c.069-.016.084.016.084.066,0,.128,0,.256,0,.384-.026.492-.07.982-.141,1.47a6.548,6.548,0,0,1-.329,1.431,1,1,0,0,1-.343.512.248.248,0,0,1-.031.02c-.055.026-.122.063-.171.031-.032-.021,0-.093.008-.142.147-.833.3-1.666.44-2.5a1.141,1.141,0,0,0,.024-.487.642.642,0,0,0-.415-.481c-.508-.177-1.02-.342-1.531-.512l-.637-.211c-.023-.008-.056-.006-.049-.049C633.909,476.437,633.95,476.183,633.994,475.91Z" transform="translate(-626.557 -470.732)"/><path class="b" d="M319.336,501.13h-1.105a.224.224,0,0,1-.187-.072.168.168,0,0,1,.092-.274,2.112,2.112,0,0,1,.434-.014c.618,0,1.236,0,1.854,0h.073c.131.01.2.073.193.188a.184.184,0,0,1-.2.171c-.174,0-.347,0-.521,0Z" transform="translate(-316.775 -495.225)"/><path class="b" d="M660.711,621.828c0-.311,0-.622,0-.933,0-.047.01-.067.058-.08a.874.874,0,0,0,.336-.175.492.492,0,0,0,.177-.278c.006-.026,0-.068.052-.05.032.011.058.017.048.067-.076.412-.149.823-.221,1.235q-.086.488-.167.978a.471.471,0,0,0,.013.181c.009.041.006.063-.05.064-.245.007-.245.009-.245-.235Z" transform="translate(-652.949 -612.449)"/><path class="b" d="M343.2,448.717h-1.142c-.133,0-.205-.063-.205-.175s.073-.179.2-.179c.764,0,1.528,0,2.292,0a.191.191,0,0,1,.191.112.174.174,0,0,1-.04.194.176.176,0,0,1-.149.051Z" transform="translate(-340.186 -443.81)"/><path class="b" d="M295.032,553.422h1.141c.111,0,.174.043.2.126a.177.177,0,0,1-.185.229c-.283,0-.566,0-.849,0h-1.461a.178.178,0,0,1-.177-.265.18.18,0,0,1,.183-.091Z" transform="translate(-292.892 -546.882)"/></svg>