<svg width="184" height="25" viewBox="0 0 184 25" fill="none" xmlns="http://www.w3.org/2000/svg">
<rect y="10" width="166" height="5" rx="2.5" fill="#D90429"/>
<path d="M183.441 11.5561C184.186 11.9727 184.186 13.0438 183.441 13.49L180.668 15.0967L169.902 21.2555L169.873 16.4653C169.873 16.257 169.992 16.0785 170.141 15.9893L175.36 12.9843C175.717 12.776 175.717 12.2404 175.36 12.0322L169.843 8.81888L167.338 7.39076C166.98 7.18249 166.503 7.45026 166.503 7.8668L166.563 18.072L166.592 23.1894L163.7 24.8556C162.924 25.2721 162 24.7365 162 23.9035V1.11295C162 0.250121 162.924 -0.285427 163.67 0.160863L166.473 1.76751L169.813 3.70143L180.668 9.94948L183.441 11.5561Z" fill="#D90429"/>
</svg>
