<svg width="140" height="60" viewBox="0 0 140 60" fill="none" xmlns="http://www.w3.org/2000/svg">
<g clip-path="url(#clip0)">
<path d="M49.7824 27.0038C51.5134 27.9782 51.5134 30.4838 49.7824 31.5278L43.3432 35.2861L18.3482 49.6931L18.2789 38.4877C18.2789 38.0005 18.5559 37.5829 18.9021 37.3741L31.0188 30.3446C31.8497 29.8574 31.8497 28.6046 31.0188 28.1174L18.2097 20.6007L12.3937 17.26C11.5628 16.7728 10.455 17.3992 10.455 18.3736L10.5935 42.246L10.6627 54.217L3.94659 58.1146C2.14639 59.0889 0 57.8362 0 55.8874V2.57462C0 0.556252 2.14639 -0.696528 3.87735 0.347456L10.3858 4.1058L18.1405 8.62973L43.3432 23.2455L49.7824 27.0038Z" fill="#D90429"/>
<path d="M65.7072 40.7154C65.7072 42.0378 65.2918 43.0121 64.3917 43.6385C63.5608 44.2649 62.3838 44.5433 60.999 44.5433C60.9298 44.5433 60.7221 44.5433 60.4451 44.5433C60.1681 44.5433 59.9604 44.5433 59.8912 44.5433C59.822 44.5433 59.6835 44.5433 59.6142 44.5433V48.7888C59.6142 48.8584 59.6142 48.928 59.545 48.9976C59.4758 49.0672 59.4065 49.0672 59.3373 49.0672H57.7448C57.6756 49.0672 57.6063 49.0672 57.5371 48.9976C57.4678 48.928 57.4678 48.8584 57.4678 48.7888V37.653C57.4678 37.5138 57.5371 37.3746 57.6063 37.305C57.6756 37.2354 57.814 37.1658 58.0218 37.1658C58.9219 37.0266 59.9604 36.957 61.2067 36.957C62.5915 36.957 63.6993 37.2354 64.5994 37.8618C65.4303 38.4186 65.9149 39.393 65.9149 40.7154H65.7072ZM63.4916 40.7154V40.5762C63.4916 39.8802 63.2839 39.393 62.9377 39.1146C62.5223 38.8362 61.9683 38.697 61.1375 38.697C60.5836 38.697 60.1681 38.697 59.6835 38.7666V42.5945C60.2374 42.5945 60.6528 42.6641 61.1375 42.6641C61.6914 42.6641 62.1761 42.5945 62.5223 42.4553C62.8684 42.3161 63.1454 42.1073 63.2839 41.829C63.4223 41.5506 63.4916 41.133 63.4916 40.7154Z" fill="#2B2D42"/>
<path d="M74.4312 48.6496C74.4312 48.7192 74.4312 48.7888 74.362 48.8584C74.2928 48.928 74.2235 48.9976 74.1543 48.9976H72.631C72.5618 48.9976 72.4926 48.928 72.4233 48.8584C72.3541 48.7888 72.3541 48.7192 72.3541 48.6496V43.2905C72.3541 42.8033 72.2849 42.4553 72.2156 42.1769C72.1464 41.9681 72.0079 41.7594 71.8002 41.6898C71.5925 41.6202 71.3155 41.5506 70.9693 41.5506C70.4154 41.5506 69.7923 41.7594 69.0999 42.1073V48.6496C69.0999 48.7192 69.0999 48.8584 69.0307 48.8584C68.9614 48.928 68.8922 48.928 68.8229 48.928H67.3689C67.2997 48.928 67.2305 48.8584 67.1612 48.7888C67.092 48.7192 67.092 48.6496 67.092 48.58V36.957C67.092 36.8874 67.092 36.8178 67.1612 36.7482C67.2305 36.6786 67.2997 36.6786 67.3689 36.6786H68.8229C68.8922 36.6786 68.9614 36.6786 69.0307 36.7482C69.0999 36.8178 69.0999 36.8874 69.0999 36.957V40.2978C69.723 39.8802 70.5539 39.6714 71.5232 39.6714C73.4619 39.6714 74.4312 40.8546 74.4312 43.2209V48.6496Z" fill="#2B2D42"/>
<path d="M79.4164 41.5506C78.5856 41.5506 77.6855 41.6898 76.8546 41.9682C76.6469 42.0378 76.5084 41.9682 76.5084 41.6898V40.7154C76.5084 40.6458 76.5084 40.5066 76.5777 40.437C76.6469 40.3674 76.7161 40.2978 76.8546 40.2282C77.2008 40.089 77.6162 39.9498 78.1009 39.8802C78.5856 39.741 79.1395 39.741 79.6934 39.741C80.3858 39.741 81.0089 39.8802 81.4936 40.089C81.9782 40.2978 82.3937 40.6458 82.6014 41.133C82.8783 41.6202 83.0168 42.1769 83.0168 42.8729V48.3713C83.0168 48.5105 83.0168 48.5801 82.9476 48.6497C82.8783 48.7192 82.8783 48.7192 82.7399 48.7888C82.2552 48.928 81.7705 48.9976 81.3551 49.0672C80.9397 49.1368 80.3858 49.1368 79.6934 49.1368C78.7933 49.1368 78.1009 49.0672 77.547 48.8584C76.9931 48.6496 76.5777 48.3713 76.3007 47.9537C76.0237 47.5361 75.8853 47.0489 75.8853 46.3529V46.2833C75.8853 45.7961 75.9545 45.3785 76.093 45.0305C76.2315 44.6825 76.4392 44.4041 76.7161 44.1953C76.9931 43.9865 77.4085 43.7777 77.8932 43.7081C78.3778 43.6385 79.001 43.5689 79.6934 43.5689H80.8012V42.8729C80.8012 42.3857 80.6627 42.0378 80.455 41.829C80.2473 41.6202 79.9011 41.5506 79.4164 41.5506ZM80.8012 47.3969V45.0305H79.6934C79.2087 45.0305 78.8625 45.1001 78.5856 45.1697C78.3086 45.2393 78.1701 45.3785 78.1009 45.5873C78.0317 45.7961 77.9624 46.0049 77.9624 46.3529V46.4225C77.9624 46.7009 78.0317 46.9793 78.1009 47.1185C78.1701 47.2577 78.3778 47.3969 78.5856 47.4665C78.7933 47.5361 79.1395 47.5361 79.6241 47.5361C80.1088 47.5361 80.5242 47.4665 80.8012 47.3969Z" fill="#2B2D42"/>
<path d="M92.2255 48.6497C92.2255 48.7193 92.2255 48.7888 92.1563 48.8584C92.087 48.928 92.0178 48.9976 91.9486 48.9976H90.4253C90.3561 48.9976 90.2868 48.928 90.2176 48.8584C90.1484 48.7888 90.1484 48.7193 90.1484 48.6497V43.2905C90.1484 42.8729 90.0791 42.5249 90.0099 42.2465C89.9407 41.9682 89.7329 41.829 89.5252 41.6898C89.3175 41.5506 88.9713 41.481 88.5559 41.481C88.0712 41.481 87.5173 41.5506 86.9634 41.6898V48.6497C86.9634 48.7193 86.9634 48.8584 86.8942 48.8584C86.8249 48.928 86.7557 48.928 86.6864 48.928H85.2324C85.1632 48.928 85.094 48.8584 85.0247 48.7888C84.9555 48.7192 84.9555 48.6497 84.9555 48.5801V40.5762C84.9555 40.437 85.094 40.2978 85.3017 40.2282C85.8556 40.089 86.4095 39.9498 87.0326 39.8802C87.6558 39.8106 88.2097 39.741 88.7636 39.741C90.0099 39.741 90.9792 40.0194 91.5331 40.5762C92.1563 41.133 92.4332 42.0378 92.4332 43.2905V48.6497H92.2255Z" fill="#2B2D42"/>
<path d="M108.704 48.7192C108.704 48.8584 108.635 48.9976 108.427 48.9976H106.766C106.696 48.9976 106.627 48.9976 106.558 48.928C106.489 48.8584 106.489 48.7888 106.489 48.7192V41.133C106.489 40.9938 106.489 40.9938 106.419 40.9938C106.419 40.9938 106.35 40.9938 106.35 41.0634L104.827 44.1257C104.758 44.3345 104.55 44.4041 104.342 44.4041H102.681C102.473 44.4041 102.265 44.3345 102.196 44.1257L100.603 41.0634C100.534 40.9938 100.534 40.9938 100.534 40.9938C100.534 40.9938 100.465 41.0634 100.465 41.133V48.6497C100.465 48.7193 100.465 48.7888 100.396 48.8584C100.326 48.928 100.257 48.928 100.188 48.928H98.5262C98.3185 48.928 98.2493 48.8584 98.2493 48.6497V37.5834C98.2493 37.3746 98.3185 37.2354 98.457 37.0962C98.5954 36.957 98.7339 36.8874 98.9416 36.8874H100.257C100.534 36.8874 100.742 37.0266 100.88 37.305L103.304 42.2466C103.373 42.3857 103.442 42.4553 103.511 42.4553C103.581 42.4553 103.581 42.3857 103.719 42.2466L106.142 37.305C106.281 37.0266 106.489 36.8874 106.766 36.8874H108.081C108.289 36.8874 108.427 36.957 108.566 37.0962C108.704 37.2354 108.773 37.3746 108.773 37.5834V48.7192H108.704Z" fill="#2B2D42"/>
<path d="M114.52 49.1368C113.828 49.1368 113.205 48.9976 112.582 48.7888C111.958 48.58 111.474 48.0929 111.058 47.5361C110.643 46.9097 110.435 46.1441 110.435 45.1001V43.8473C110.435 43.0121 110.574 42.3161 110.92 41.6898C111.197 41.0634 111.682 40.5762 112.235 40.2282C112.789 39.8802 113.482 39.741 114.313 39.741C115.143 39.741 115.836 39.9498 116.39 40.2978C116.944 40.6458 117.428 41.133 117.705 41.7594C117.982 42.3857 118.121 43.0817 118.121 43.9169V44.8217C118.121 45.1001 117.982 45.2393 117.774 45.2393H112.512C112.512 45.8657 112.651 46.3529 112.997 46.7009C113.274 47.0489 113.897 47.2577 114.728 47.2577C115.213 47.2577 115.697 47.1881 116.182 47.1185C116.667 47.0489 117.151 46.9097 117.498 46.8401C117.705 46.7705 117.844 46.8401 117.844 47.1185V48.0233C117.844 48.1625 117.844 48.2321 117.774 48.3017C117.705 48.3713 117.636 48.4409 117.498 48.5104C117.151 48.7192 116.736 48.8584 116.182 48.9976C115.628 49.1368 115.074 49.1368 114.52 49.1368ZM115.974 43.6385C115.974 42.9425 115.836 42.4553 115.49 42.1074C115.213 41.7594 114.797 41.6202 114.243 41.6202C113.897 41.6202 113.62 41.6898 113.343 41.829C113.066 41.9682 112.859 42.1769 112.72 42.5249C112.582 42.8033 112.512 43.2209 112.512 43.6385V43.7081H115.974V43.6385Z" fill="#2B2D42"/>
<path d="M127.052 48.3017C127.052 48.4409 127.052 48.5105 126.983 48.5801C126.914 48.6497 126.775 48.7193 126.637 48.7193C126.36 48.7889 126.014 48.8585 125.598 48.9281C125.183 48.9976 124.837 49.0672 124.491 49.0672C124.144 49.0672 123.729 49.1368 123.383 49.1368C122.552 49.1368 121.79 48.9976 121.236 48.6497C120.683 48.3017 120.267 47.8841 119.921 47.2577C119.575 46.6313 119.505 45.9353 119.505 45.1001V43.8473C119.505 43.0121 119.644 42.2466 119.921 41.6898C120.198 41.0634 120.613 40.5762 121.236 40.2978C121.86 40.0194 122.552 39.8106 123.383 39.8106C123.867 39.8106 124.352 39.8802 124.906 39.9498V37.0962C124.906 37.0266 124.906 36.957 124.975 36.8874C125.045 36.8178 125.114 36.8178 125.183 36.8178H126.637C126.706 36.8178 126.775 36.8178 126.845 36.8874C126.914 36.957 126.914 37.0266 126.914 37.0962V48.3017H127.052ZM124.906 47.2577V41.6202C124.629 41.5506 124.352 41.5506 124.144 41.5506C123.867 41.5506 123.66 41.5506 123.383 41.5506C122.76 41.5506 122.275 41.7594 121.998 42.177C121.721 42.5945 121.652 43.1513 121.652 43.9169V45.1697C121.652 45.5177 121.652 45.7961 121.721 46.0745C121.79 46.3529 121.86 46.6313 121.998 46.8401C122.137 47.0489 122.275 47.1881 122.552 47.3273C122.76 47.4665 123.037 47.4665 123.383 47.4665C124.006 47.3969 124.56 47.3273 124.906 47.2577Z" fill="#2B2D42"/>
<path d="M131.137 38.2794C131.137 38.349 131.137 38.4186 131.068 38.4882C130.999 38.5578 130.93 38.5578 130.861 38.5578H129.268C129.199 38.5578 129.13 38.5578 129.06 38.4882C128.991 38.4186 128.922 38.349 128.922 38.2794V36.8874C128.922 36.8178 128.991 36.7482 129.06 36.6786C129.13 36.609 129.199 36.609 129.268 36.609H130.861C130.93 36.609 130.999 36.609 131.068 36.6786C131.137 36.7482 131.137 36.8178 131.137 36.8874V38.2794ZM131.068 48.6497C131.068 48.7193 131.068 48.8584 130.999 48.8584C130.93 48.928 130.861 48.9281 130.791 48.9281H129.337C129.268 48.9281 129.199 48.8584 129.13 48.7888C129.06 48.7193 129.06 48.6497 129.06 48.5801V40.1586C129.06 40.089 129.06 40.0194 129.13 39.9498C129.199 39.8802 129.268 39.8802 129.337 39.8802H130.791C130.861 39.8802 130.999 39.8802 130.999 39.9498C131.068 40.0194 131.068 40.089 131.068 40.1586V48.6497Z" fill="#2B2D42"/>
<path d="M136.469 41.5506C135.638 41.5506 134.738 41.6898 133.907 41.9682C133.699 42.0378 133.561 41.9682 133.561 41.6898V40.7154C133.561 40.6458 133.561 40.5066 133.63 40.437C133.699 40.3674 133.769 40.2978 133.907 40.2282C134.253 40.089 134.669 39.9498 135.153 39.8802C135.638 39.741 136.192 39.741 136.746 39.741C137.438 39.741 138.061 39.8802 138.546 40.089C139.031 40.2978 139.446 40.6458 139.654 41.133C139.931 41.6202 140.069 42.1769 140.069 42.8729V48.3713C140.069 48.5105 140.069 48.5801 140 48.6497C139.931 48.7193 139.862 48.7193 139.792 48.7193C139.308 48.8584 138.823 48.928 138.408 48.9976C137.992 49.0672 137.438 49.0672 136.746 49.0672C135.846 49.0672 135.153 48.9976 134.599 48.7888C134.046 48.5801 133.63 48.3017 133.353 47.8841C133.076 47.4665 132.938 46.9793 132.938 46.2833V46.2137C132.938 45.7265 133.007 45.3089 133.145 44.9609C133.284 44.6129 133.492 44.3345 133.769 44.1257C134.046 43.9169 134.461 43.7081 134.946 43.6385C135.43 43.5689 136.053 43.4993 136.746 43.4993H137.854V42.8033C137.854 42.3161 137.715 41.9682 137.507 41.7594C137.3 41.5506 136.954 41.5506 136.469 41.5506ZM137.923 47.3969V45.0305H136.815C136.33 45.0305 135.984 45.1001 135.707 45.1697C135.43 45.2393 135.292 45.3785 135.223 45.5873C135.153 45.7961 135.084 46.0049 135.084 46.3529V46.4225C135.084 46.7009 135.153 46.9793 135.223 47.1185C135.292 47.2577 135.5 47.3969 135.707 47.4665C135.915 47.5361 136.261 47.5361 136.746 47.5361C137.23 47.5361 137.577 47.4665 137.923 47.3969Z" fill="#2B2D42"/>
<path d="M61.6222 56.3741C61.6222 57.6269 60.7913 58.1837 59.1296 58.1837C58.5064 58.1837 58.0218 58.1837 57.7448 58.1141C57.6756 58.1141 57.5371 58.0445 57.5371 58.0445C57.4678 58.0445 57.4678 57.9749 57.4678 57.8357V52.059C57.4678 51.8502 57.5371 51.7806 57.7448 51.711C58.091 51.6414 58.5757 51.6414 59.1296 51.6414C59.6142 51.6414 60.0989 51.711 60.4451 51.7806C60.7913 51.8502 61.1375 52.059 61.3452 52.3374C61.5529 52.6158 61.6914 52.8942 61.6914 53.3118V53.451C61.6914 53.799 61.6222 54.0774 61.4144 54.2862C61.2067 54.495 60.999 54.7038 60.7221 54.843C60.999 54.9126 61.276 55.1214 61.4144 55.3302C61.5529 55.6085 61.6914 55.8869 61.6914 56.2349V56.3741H61.6222ZM60.8605 53.5206V53.3814C60.8605 52.9638 60.7221 52.755 60.4451 52.6158C60.1681 52.4766 59.7527 52.407 59.1296 52.407C58.9911 52.407 58.9219 52.407 58.8526 52.407C58.7834 52.407 58.7141 52.407 58.5757 52.407C58.4372 52.407 58.2987 52.407 58.2295 52.407V54.5646H59.545C60.3759 54.495 60.8605 54.147 60.8605 53.5206ZM60.8605 56.3741V56.2349C60.8605 55.8869 60.7913 55.6781 60.5836 55.4693C60.3759 55.2606 60.0297 55.191 59.6142 55.191H58.2987V57.5573C58.3679 57.5573 58.5757 57.5573 58.7141 57.5573C58.9219 57.5573 59.0603 57.5573 59.1296 57.5573C59.545 57.5573 59.822 57.5573 60.0989 57.4877C60.3759 57.4181 60.5143 57.2789 60.6528 57.1397C60.7913 57.0005 60.8605 56.7221 60.8605 56.3741Z" fill="#D90429"/>
<path d="M63.0762 52.4776C63.0762 52.5472 63.0762 52.5472 63.0069 52.6168C63.0069 52.6168 62.9377 52.6864 62.8684 52.6864H62.453C62.3838 52.6864 62.3838 52.6864 62.3145 52.6168C62.2453 52.5472 62.3145 52.5472 62.3145 52.4776V51.7816C62.3145 51.712 62.3145 51.712 62.3838 51.6424C62.3838 51.6424 62.453 51.5728 62.5223 51.5728H62.9377C63.0069 51.5728 63.0069 51.5728 63.0762 51.6424C63.0762 51.6424 63.1454 51.712 63.1454 51.7816V52.4776H63.0762ZM63.0762 57.9759C63.0762 58.0455 63.0762 58.0455 63.0069 58.1151C63.0069 58.1151 62.9377 58.1847 62.8684 58.1847H62.453C62.3838 58.1847 62.3838 58.1847 62.3145 58.1151C62.2453 58.1151 62.2453 58.0455 62.2453 57.9759V53.5912C62.2453 53.5216 62.2453 53.5216 62.3145 53.452C62.3145 53.452 62.3838 53.3824 62.453 53.3824H62.8684C62.9377 53.3824 62.9377 53.3824 63.0069 53.452C63.0069 53.452 63.0762 53.5216 63.0762 53.5912V57.9759Z" fill="#D90429"/>
<path d="M64.6686 57.9759C64.6686 58.0455 64.6686 58.0455 64.5994 58.1151C64.5994 58.1151 64.5302 58.1847 64.4609 58.1847H64.0455C63.9762 58.1847 63.9763 58.1847 63.907 58.1151C63.907 58.1151 63.8378 58.0455 63.8378 57.9759V51.7816C63.8378 51.712 63.8378 51.712 63.907 51.6424C63.907 51.6424 63.9762 51.5728 64.0455 51.5728H64.4609C64.5302 51.5728 64.5302 51.5728 64.5994 51.6424C64.5994 51.6424 64.6686 51.712 64.6686 51.7816V57.9759Z" fill="#D90429"/>
<path d="M66.2611 57.9759C66.2611 58.0455 66.2611 58.0455 66.1919 58.1151C66.1919 58.1151 66.1227 58.1847 66.0534 58.1847H65.638C65.5687 58.1847 65.5687 58.1847 65.4995 58.1151C65.4995 58.1151 65.4303 58.0455 65.4303 57.9759V51.7816C65.4303 51.712 65.4303 51.712 65.4995 51.6424C65.4995 51.6424 65.5687 51.5728 65.638 51.5728H66.0534C66.1227 51.5728 66.1226 51.5728 66.1919 51.6424C66.1919 51.6424 66.2611 51.712 66.2611 51.7816V57.9759Z" fill="#D90429"/>
<path d="M70.6924 56.0967C70.6924 56.7927 70.5539 57.2799 70.2077 57.6975C69.8615 58.0455 69.4461 58.2543 68.8229 58.2543C68.269 58.2543 67.7151 58.1847 67.2305 58.1151C67.1612 58.1151 67.092 58.0455 67.092 58.0455C67.092 58.0455 67.092 57.9759 67.092 57.9063V51.8512C67.092 51.7816 67.092 51.7816 67.1612 51.712C67.1612 51.712 67.2305 51.6424 67.2997 51.6424H67.7151C67.7844 51.6424 67.7844 51.6424 67.8536 51.712C67.9228 51.7816 67.9228 51.7816 67.9228 51.8512V53.452C68.0613 53.452 68.1998 53.3824 68.4075 53.3824C68.6152 53.3824 68.7537 53.3824 68.9614 53.3824C69.3076 53.3824 69.5846 53.452 69.7923 53.5216C70 53.5912 70.2077 53.7304 70.3462 53.9392C70.4847 54.148 70.6231 54.3568 70.6924 54.5656C70.7616 54.7744 70.8309 55.1223 70.8309 55.4703V56.0967H70.6924ZM70 56.0967V55.4703C70 54.9831 69.9308 54.6352 69.723 54.3568C69.5153 54.0784 69.2384 54.0088 68.8229 54.0088C68.3383 54.0088 68.0613 54.0088 67.7844 54.0784V57.4887C68.1998 57.5583 68.546 57.5583 68.8229 57.5583C69.2384 57.5583 69.5153 57.4191 69.723 57.2103C69.8615 56.9319 70 56.5839 70 56.0967Z" fill="#D90429"/>
<path d="M75.1236 56.0967C75.1236 56.7231 74.9852 57.2799 74.639 57.6279C74.2928 57.9759 73.8081 58.1847 73.1849 58.1847C72.5618 58.1847 72.0771 57.9759 71.7309 57.6279C71.3848 57.2799 71.2463 56.7231 71.2463 56.0967V55.4703C71.2463 54.844 71.3848 54.2872 71.7309 53.9392C72.0771 53.5912 72.5618 53.3824 73.1849 53.3824C73.8081 53.3824 74.2928 53.5912 74.639 53.9392C74.9852 54.2872 75.1236 54.844 75.1236 55.4703V56.0967ZM74.362 56.0967V55.4703C74.362 55.1919 74.2928 54.9136 74.2235 54.7048C74.1543 54.496 74.0158 54.3568 73.8081 54.2176C73.6696 54.0784 73.3927 54.0784 73.1849 54.0784C72.7695 54.0784 72.4926 54.2176 72.2849 54.4264C72.0771 54.6352 72.0079 54.9831 72.0079 55.4703V56.0967C72.0079 57.0711 72.4233 57.5583 73.1849 57.5583C73.6004 57.5583 73.8773 57.4191 74.0851 57.2103C74.2928 57.0015 74.362 56.5839 74.362 56.0967Z" fill="#D90429"/>
<path d="M79.0702 57.8367C79.0702 57.9759 79.001 57.9759 78.9317 58.0455C78.724 58.1151 78.4471 58.1847 78.2394 58.1847C78.0316 58.1847 77.7547 58.2543 77.4777 58.2543C76.7854 58.2543 76.3007 58.1151 76.0237 57.9063C75.7468 57.6975 75.6083 57.3495 75.6083 56.7927V56.7231C75.6083 56.3751 75.6775 56.1663 75.816 55.9575C75.9545 55.7487 76.1622 55.6095 76.5084 55.4703C76.8546 55.3311 77.2008 55.3311 77.6855 55.3311H78.3086V54.9832C78.3086 54.6352 78.2394 54.3568 78.1009 54.2176C77.9624 54.0784 77.7547 54.0088 77.4085 54.0088C77.1316 54.0088 76.9238 54.0088 76.7161 54.0784C76.5084 54.148 76.3007 54.148 76.093 54.2176C76.0237 54.2176 75.9545 54.2176 75.9545 54.2176C75.9545 54.2176 75.8853 54.148 75.8853 54.0784V53.7304C75.8853 53.6608 75.9545 53.5912 76.0237 53.5912C76.1622 53.5216 76.3699 53.452 76.5776 53.3824C76.8546 53.3128 77.1316 53.3128 77.4085 53.3128C78.5163 53.3128 79.0702 53.8696 79.0702 54.9136V57.8367ZM78.3086 57.5583V55.8879H77.6855C77.4085 55.8879 77.2008 55.8879 77.0623 55.9575C76.9238 55.9575 76.7854 56.0271 76.6469 56.0967C76.5776 56.1663 76.5084 56.2359 76.4392 56.3751C76.3699 56.5143 76.3699 56.5839 76.3699 56.7927V56.8623C76.3699 57.0711 76.3699 57.2103 76.4392 57.3495C76.5084 57.4887 76.6469 57.5583 76.7854 57.6279C76.9238 57.6975 77.2008 57.6975 77.4777 57.6975C77.6162 57.6975 77.6855 57.6975 77.8239 57.6975C77.9624 57.6975 78.0317 57.6975 78.1009 57.6975C78.1701 57.5583 78.2394 57.5583 78.3086 57.5583Z" fill="#D90429"/>
<path d="M81.7705 53.3128C81.9782 53.3128 82.1859 53.3128 82.3244 53.3824C82.3937 53.3824 82.3937 53.3824 82.4629 53.452C82.5321 53.5216 82.4629 53.5216 82.4629 53.5912V53.8696C82.4629 53.9392 82.4629 53.9392 82.4629 54.0088C82.4629 54.0088 82.3937 54.0088 82.3244 54.0088C82.1167 54.0088 81.909 54.0088 81.7705 54.0088C81.4243 54.0088 81.0781 54.0784 80.7319 54.148V57.9759C80.7319 58.0455 80.7319 58.0455 80.6627 58.1151C80.5935 58.1847 80.5935 58.1847 80.5242 58.1847H80.1088C80.0396 58.1847 80.0396 58.1847 79.9703 58.1151C79.9703 58.1151 79.9011 58.0455 79.9011 57.9759V53.8C79.9011 53.6608 79.9703 53.5912 80.0396 53.5912C80.3857 53.5216 80.6627 53.452 80.9397 53.3824C81.2858 53.3824 81.5628 53.3128 81.7705 53.3128Z" fill="#D90429"/>
<path d="M86.7557 57.9063C86.7557 57.9759 86.7557 58.0455 86.6864 58.0455C86.6864 58.0455 86.6172 58.1151 86.548 58.1151C86.0633 58.1847 85.5094 58.2543 84.9555 58.2543C84.54 58.2543 84.1939 58.1847 83.9169 57.9759C83.6399 57.7671 83.4322 57.5583 83.2938 57.2103C83.1553 56.8623 83.086 56.5143 83.086 56.0967V55.4703C83.086 55.1223 83.1553 54.844 83.2245 54.5656C83.2938 54.2872 83.4322 54.0784 83.5707 53.9392C83.7092 53.7304 83.9169 53.5912 84.1246 53.5216C84.3323 53.452 84.6093 53.3824 84.9555 53.3824C85.3017 53.3824 85.6479 53.3824 85.9941 53.452V51.8512C85.9941 51.7816 85.9941 51.7816 86.0633 51.712C86.0633 51.712 86.1325 51.6424 86.2018 51.6424H86.6172C86.6864 51.6424 86.6864 51.6424 86.7557 51.712C86.7557 51.712 86.8249 51.7816 86.8249 51.8512V57.9063H86.7557ZM85.9941 57.4887V54.0784C85.8556 54.0784 85.7171 54.0088 85.5094 54.0088C85.3709 54.0088 85.1632 54.0088 84.9555 54.0088C84.54 54.0088 84.2631 54.148 84.1246 54.3568C83.9861 54.5656 83.8477 54.9831 83.8477 55.4703V56.0967C83.8477 56.5839 83.9169 56.9319 84.1246 57.2103C84.2631 57.4191 84.6093 57.5583 84.9555 57.5583C85.2324 57.5583 85.5786 57.5583 85.9941 57.4887Z" fill="#D90429"/>
<path d="M94.3719 58.0455C94.3719 58.1151 94.3027 58.1847 94.2334 58.1847H93.7488C93.6795 58.1847 93.6103 58.1151 93.6103 58.0455L93.0564 56.0271H90.8408L90.2868 58.0455C90.2868 58.1151 90.2868 58.1151 90.2176 58.1151C90.1484 58.1151 90.1484 58.1847 90.1484 58.1847H89.6637C89.5945 58.1847 89.5945 58.1847 89.5945 58.1151L89.5252 58.0455V57.9759L91.1177 52.3384C91.1869 52.06 91.3254 51.9208 91.4639 51.8512C91.6024 51.7816 91.8101 51.712 92.0178 51.712C92.1563 51.712 92.2255 51.712 92.364 51.7816C92.5025 51.8512 92.5717 51.9208 92.641 51.9904C92.7102 52.06 92.7794 52.1992 92.8487 52.408L94.3719 58.0455C94.3719 57.9759 94.3719 57.9759 94.3719 58.0455ZM92.8487 55.4007L92.087 52.5472C92.087 52.4776 92.0178 52.408 91.9486 52.408C91.8793 52.408 91.8101 52.4776 91.8101 52.5472L91.0485 55.4007H92.8487Z" fill="#D90429"/>
<path d="M98.5955 57.9053C98.5955 57.9749 98.5955 58.0445 98.5262 58.0445C98.5262 58.0445 98.457 58.1141 98.3877 58.1141C97.9031 58.1837 97.3492 58.2533 96.7953 58.2533C96.3798 58.2533 96.0336 58.1837 95.7567 57.9749C95.4797 57.7661 95.272 57.5573 95.1335 57.2093C94.9951 56.8613 94.9258 56.5133 94.9258 56.0957V55.4693C94.9258 55.1214 94.9951 54.843 95.0643 54.5646C95.1335 54.2862 95.272 54.0774 95.4105 53.9382C95.549 53.7294 95.7567 53.5902 95.9644 53.5206C96.1721 53.451 96.4491 53.3814 96.7953 53.3814C97.1415 53.3814 97.4876 53.3814 97.8338 53.451V51.8502C97.8338 51.7806 97.8338 51.7806 97.9031 51.711C97.9031 51.711 97.9723 51.6414 98.0416 51.6414H98.457C98.5262 51.6414 98.5262 51.6414 98.5955 51.711C98.5955 51.711 98.6647 51.7806 98.6647 51.8502V57.9053H98.5955ZM97.8338 57.4877V54.0774C97.6954 54.0774 97.5569 54.0078 97.3492 54.0078C97.2107 54.0078 97.003 54.0078 96.7953 54.0078C96.3798 54.0078 96.1029 54.147 95.9644 54.3558C95.8259 54.5646 95.6874 54.9822 95.6874 55.4693V56.0957C95.6874 56.5829 95.7567 56.9309 95.9644 57.2093C96.1029 57.4181 96.4491 57.5573 96.7953 57.5573C97.0722 57.5573 97.4184 57.5573 97.8338 57.4877Z" fill="#D90429"/>
<path d="M103.096 53.5912L101.919 57.7671C101.85 57.9759 101.78 58.0455 101.642 58.1151C101.503 58.1847 101.365 58.2543 101.157 58.2543C100.95 58.2543 100.811 58.1847 100.673 58.1151C100.534 58.0455 100.465 57.9063 100.396 57.7671L99.2186 53.6608V53.5912C99.2186 53.5216 99.2186 53.5216 99.2878 53.452L99.3571 53.3824H99.8417C99.911 53.3824 99.9802 53.452 99.9802 53.5216L100.95 57.2799C100.95 57.4191 101.019 57.4887 101.019 57.4887L101.088 57.5583C101.157 57.5583 101.157 57.5583 101.157 57.4887C101.157 57.4887 101.227 57.4191 101.227 57.2799L102.196 53.5216C102.196 53.3824 102.265 53.3824 102.334 53.3824H102.819C102.888 53.3824 102.888 53.3824 102.957 53.452C103.096 53.452 103.096 53.5216 103.096 53.5912Z" fill="#D90429"/>
<path d="M105.519 57.5583C105.727 57.5583 105.865 57.5583 106.073 57.4887C106.281 57.4191 106.419 57.4191 106.627 57.3495C106.835 57.2799 106.973 57.2103 107.043 57.2103C107.112 57.2103 107.181 57.2103 107.181 57.2103C107.181 57.2103 107.25 57.2799 107.25 57.3495V57.6975C107.25 57.7671 107.181 57.8367 107.112 57.8367C106.627 58.1151 106.073 58.2543 105.519 58.2543C105.173 58.2543 104.827 58.1847 104.55 58.0455C104.273 57.9063 103.996 57.6975 103.858 57.4191C103.65 57.1407 103.581 56.7231 103.581 56.1663V55.4007C103.581 54.7744 103.719 54.2872 104.065 53.9392C104.411 53.5912 104.896 53.3824 105.45 53.3824C105.865 53.3824 106.212 53.452 106.489 53.6608C106.766 53.8696 106.973 54.0784 107.112 54.3568C107.25 54.6352 107.319 55.0527 107.319 55.4007V55.8879C107.319 56.0271 107.25 56.0967 107.181 56.0967H104.273V56.2359C104.273 56.7231 104.342 57.0711 104.55 57.3495C104.827 57.4887 105.104 57.5583 105.519 57.5583ZM106.627 55.4703V55.4007C106.627 55.0527 106.558 54.844 106.489 54.6352C106.419 54.4264 106.281 54.2872 106.142 54.2176C106.004 54.148 105.796 54.0784 105.519 54.0784C104.758 54.0784 104.342 54.496 104.342 55.4007V55.4703H106.627Z" fill="#D90429"/>
<path d="M109.812 53.3128C110.02 53.3128 110.227 53.3128 110.366 53.3824C110.435 53.3824 110.435 53.3824 110.504 53.452C110.574 53.5216 110.504 53.5216 110.504 53.5912V53.8696C110.504 53.9392 110.504 53.9392 110.504 54.0088C110.504 54.0088 110.435 54.0088 110.366 54.0088C110.158 54.0088 109.951 54.0088 109.812 54.0088C109.466 54.0088 109.12 54.0784 108.773 54.148V57.9759C108.773 58.0455 108.773 58.0455 108.704 58.1151C108.635 58.1847 108.635 58.1847 108.566 58.1847H108.15C108.081 58.1847 108.081 58.1847 108.012 58.1151C108.012 58.1151 107.943 58.0455 107.943 57.9759V53.8C107.943 53.6608 108.012 53.5912 108.081 53.5912C108.427 53.5216 108.704 53.452 108.981 53.3824C109.327 53.3824 109.535 53.3128 109.812 53.3128Z" fill="#D90429"/>
<path d="M113.828 58.0455C113.828 58.1151 113.759 58.1847 113.689 58.1847C113.482 58.1847 113.343 58.2543 113.136 58.2543C112.72 58.2543 112.443 58.1847 112.235 58.0455C112.028 57.9063 111.958 57.5583 111.958 57.1407V54.148L111.128 54.0784C110.989 54.0784 110.989 54.0088 110.989 53.9392V53.5912C110.989 53.5216 111.058 53.452 111.128 53.452H111.958V52.6168C111.958 52.5472 112.028 52.4776 112.097 52.4776L112.582 52.408C112.651 52.408 112.651 52.408 112.651 52.4776L112.72 52.5472V53.5216H113.62C113.689 53.5216 113.689 53.5216 113.759 53.5912C113.759 53.5912 113.828 53.6608 113.828 53.7304V54.0088C113.828 54.0784 113.828 54.0784 113.759 54.148C113.689 54.148 113.689 54.2176 113.62 54.2176H112.72V57.0711C112.72 57.2799 112.72 57.4191 112.789 57.4887C112.859 57.5583 112.997 57.5583 113.136 57.5583H113.62C113.759 57.5583 113.828 57.6279 113.828 57.6975V58.0455Z" fill="#D90429"/>
<path d="M115.351 52.4776C115.351 52.5472 115.351 52.5472 115.282 52.6168C115.282 52.6168 115.213 52.6864 115.143 52.6864H114.728C114.659 52.6864 114.659 52.6864 114.59 52.6168C114.59 52.6168 114.52 52.5472 114.52 52.4776V51.7816C114.52 51.712 114.52 51.712 114.59 51.6424C114.59 51.6424 114.659 51.5728 114.728 51.5728H115.143C115.213 51.5728 115.213 51.5728 115.282 51.6424C115.282 51.6424 115.351 51.712 115.351 51.7816V52.4776ZM115.282 57.9759C115.282 58.0455 115.282 58.0455 115.213 58.1151C115.213 58.1151 115.143 58.1847 115.074 58.1847H114.659C114.59 58.1847 114.59 58.1847 114.52 58.1151C114.451 58.1151 114.451 58.0455 114.451 57.9759V53.5912C114.451 53.5216 114.451 53.5216 114.52 53.452C114.52 53.452 114.59 53.3824 114.659 53.3824H115.074C115.143 53.3824 115.143 53.3824 115.213 53.452C115.213 53.452 115.282 53.5216 115.282 53.5912V57.9759Z" fill="#D90429"/>
<path d="M117.428 57.5583C118.051 57.5583 118.398 57.3495 118.398 56.9319C118.398 56.7927 118.328 56.6535 118.259 56.5839C118.19 56.5143 117.982 56.3751 117.774 56.2359L116.874 55.8183C116.597 55.6791 116.39 55.4703 116.251 55.2616C116.113 55.0528 116.044 54.844 116.044 54.496C116.044 54.2176 116.113 53.9392 116.251 53.8C116.39 53.6608 116.597 53.5216 116.874 53.452C117.151 53.3824 117.359 53.3128 117.705 53.3128C117.913 53.3128 118.19 53.3128 118.398 53.3824C118.605 53.452 118.813 53.5216 118.882 53.5216C118.952 53.5216 118.952 53.5912 118.952 53.5912V53.6608V54.0088C118.952 54.0784 118.952 54.0784 118.882 54.148C118.813 54.148 118.813 54.148 118.744 54.148C118.605 54.0784 118.398 54.0088 118.19 54.0088C117.982 53.9392 117.774 53.9392 117.636 53.9392C117.359 53.9392 117.151 53.9392 117.013 54.0088C116.874 54.0784 116.805 54.2176 116.805 54.4264C116.805 54.5656 116.874 54.7048 116.944 54.7744C117.013 54.844 117.221 54.9832 117.428 55.1223L118.259 55.5399C118.467 55.6791 118.675 55.8183 118.813 55.8879C118.952 56.0271 119.021 56.1663 119.09 56.3055C119.159 56.4447 119.159 56.5839 119.159 56.7927C119.159 57.0711 119.09 57.3495 118.952 57.5583C118.813 57.7671 118.605 57.9063 118.328 57.9759C118.051 58.0455 117.774 58.1151 117.428 58.1151C117.151 58.1151 116.944 58.1151 116.667 58.0455C116.459 57.9759 116.251 57.9063 116.113 57.8367C116.044 57.7671 115.974 57.7671 115.974 57.6975V57.3495C115.974 57.2799 115.974 57.2799 116.044 57.2103C116.113 57.2103 116.113 57.2103 116.182 57.2103C116.667 57.4887 117.013 57.5583 117.428 57.5583Z" fill="#D90429"/>
<path d="M120.752 52.4776C120.752 52.5472 120.752 52.5472 120.682 52.6168C120.682 52.6168 120.613 52.6864 120.544 52.6864H120.129C120.059 52.6864 120.059 52.6864 119.99 52.6168C119.99 52.6168 119.921 52.5472 119.921 52.4776V51.7816C119.921 51.712 119.921 51.712 119.99 51.6424C119.99 51.6424 120.059 51.5728 120.129 51.5728H120.544C120.613 51.5728 120.613 51.5728 120.682 51.6424C120.682 51.6424 120.752 51.712 120.752 51.7816V52.4776ZM120.682 57.9759C120.682 58.0455 120.682 58.0455 120.613 58.1151C120.613 58.1151 120.544 58.1847 120.475 58.1847H120.059C119.99 58.1847 119.99 58.1847 119.921 58.1151C119.852 58.1151 119.852 58.0455 119.852 57.9759V53.5912C119.852 53.5216 119.852 53.5216 119.921 53.452C119.921 53.452 119.99 53.3824 120.059 53.3824H120.475C120.544 53.3824 120.544 53.3824 120.613 53.452C120.613 53.452 120.682 53.5216 120.682 53.5912V57.9759Z" fill="#D90429"/>
<path d="M125.114 55.192V58.0455C125.114 58.1151 125.114 58.1151 125.045 58.1847C124.975 58.1847 124.975 58.2543 124.906 58.2543H124.491C124.421 58.2543 124.421 58.2543 124.352 58.1847C124.352 58.1847 124.283 58.1151 124.283 58.0455V55.192C124.283 54.9136 124.283 54.7048 124.214 54.496C124.144 54.3568 124.006 54.2176 123.867 54.148C123.729 54.0784 123.521 54.0088 123.314 54.0088C122.967 54.0088 122.621 54.0784 122.206 54.148V57.9759C122.206 58.0455 122.206 58.0455 122.136 58.1151C122.067 58.1847 122.067 58.1847 121.998 58.1847H121.583C121.513 58.1847 121.513 58.1847 121.444 58.1151C121.444 58.1151 121.375 58.0455 121.375 57.9759V53.8C121.375 53.6608 121.444 53.5912 121.513 53.5912C122.206 53.3824 122.829 53.3128 123.314 53.3128C123.66 53.3128 123.937 53.3824 124.144 53.452C124.352 53.5216 124.56 53.6608 124.698 53.8C124.837 53.9392 124.906 54.148 124.975 54.3568C125.114 54.5656 125.114 54.844 125.114 55.192Z" fill="#D90429"/>
<path d="M127.468 59.2287C127.745 59.2287 127.953 59.2287 128.091 59.1591C128.229 59.0895 128.368 59.0199 128.437 58.8111C128.506 58.6719 128.576 58.4631 128.576 58.1151V58.0455C128.437 58.0455 128.299 58.1151 128.091 58.1151C127.883 58.1151 127.745 58.1847 127.606 58.1847C126.291 58.1847 125.668 57.4887 125.668 56.0271V55.4007C125.668 54.9136 125.737 54.496 125.875 54.2176C126.014 53.9392 126.222 53.6608 126.499 53.5216C126.775 53.3824 127.122 53.3128 127.537 53.3128C128.022 53.3128 128.506 53.3824 129.06 53.5216C129.13 53.5216 129.199 53.5216 129.199 53.5912C129.199 53.5912 129.268 53.6608 129.268 53.7304V58.1847C129.268 58.8111 129.13 59.2287 128.783 59.5071C128.506 59.7855 128.022 59.9247 127.399 59.9247C127.122 59.9247 126.845 59.8551 126.568 59.7855C126.291 59.7159 126.152 59.6463 126.014 59.5767C125.945 59.5071 125.875 59.4375 125.875 59.3679V59.0895C125.875 59.0199 125.875 59.0199 125.945 58.9503C126.014 58.9503 126.014 58.9503 126.083 58.9503C126.36 59.0895 126.637 59.1591 126.775 59.1591C126.983 59.2287 127.191 59.2287 127.468 59.2287ZM128.576 57.4887V54.0784C128.229 54.0088 127.883 54.0088 127.606 54.0088C127.399 54.0088 127.191 54.0088 127.052 54.0784C126.914 54.148 126.775 54.2176 126.706 54.3568C126.637 54.496 126.568 54.6352 126.499 54.844C126.429 55.0528 126.429 55.2616 126.429 55.5399V56.1663C126.429 56.5143 126.499 56.7927 126.568 57.0711C126.637 57.2799 126.775 57.4191 126.983 57.5583C127.191 57.6975 127.399 57.6975 127.606 57.6975C127.745 57.6975 127.883 57.6975 128.091 57.6975C128.299 57.6975 128.437 57.5583 128.576 57.4887Z" fill="#D90429"/>
</g>
<defs>
<clipPath id="clip0">
<rect width="140" height="59.8551" fill="white"/>
</clipPath>
</defs>
</svg>
